<?xml version="1.0" standalone="no"?>
<!DOCTYPE svg PUBLIC "-//W3C//DTD SVG 20010904//EN"
 "http://www.w3.org/TR/2001/REC-SVG-20010904/DTD/svg10.dtd">
<svg version="1.0" xmlns="http://www.w3.org/2000/svg"
 width="1080.000000pt" height="1080.000000pt" viewBox="0 0 1080.000000 1080.000000"
 preserveAspectRatio="xMidYMid meet">
<metadata>
Created by potrace 1.14, written by Peter Selinger 2001-2017
</metadata>
<g transform="translate(0.000000,1080.000000) scale(0.100000,-0.100000)"
fill="#000000" stroke="none">
<path d="M7207 8614 c-1 -1 -65 -5 -142 -8 -154 -7 -247 -13 -345 -21 -36 -3
-90 -7 -120 -10 -101 -8 -185 -16 -220 -20 -19 -2 -64 -7 -100 -10 -36 -3 -76
-8 -90 -10 -14 -2 -47 -6 -75 -9 -94 -11 -150 -18 -169 -22 -10 -2 -44 -6 -75
-9 -31 -4 -63 -8 -71 -10 -8 -2 -35 -7 -60 -10 -25 -3 -56 -8 -70 -10 -14 -2
-45 -7 -70 -10 -51 -7 -301 -44 -340 -50 -14 -3 -50 -7 -80 -10 -30 -4 -62 -8
-70 -10 -8 -2 -37 -7 -65 -11 -27 -3 -59 -8 -69 -10 -11 -2 -54 -8 -96 -14
-42 -6 -86 -12 -97 -14 -11 -3 -44 -7 -74 -11 -51 -6 -67 -8 -136 -19 -16 -3
-48 -7 -73 -11 -58 -7 -191 -26 -210 -30 -15 -3 -85 -12 -145 -19 -88 -11
-315 -48 -350 -57 -267 -71 -380 -197 -370 -410 8 -180 75 -265 247 -319 81
-25 137 -22 293 15 83 20 231 54 330 76 99 22 187 42 195 44 27 7 156 34 183
39 15 2 35 7 45 10 9 3 34 7 56 11 21 3 41 7 45 9 3 2 23 7 44 10 22 3 69 13
105 21 58 12 217 42 317 60 377 66 543 92 815 130 63 9 126 18 140 20 14 2 50
6 80 10 30 3 73 8 95 12 22 3 51 7 65 8 63 6 167 18 183 21 9 1 54 6 100 10
45 3 85 8 88 10 3 1 48 6 100 9 52 4 110 9 129 11 86 8 329 18 485 18 160 1
178 -1 295 -31 187 -48 291 -73 305 -73 24 0 108 65 145 112 21 26 48 74 60
105 23 62 32 170 19 219 -27 97 -259 209 -515 250 -20 3 -46 8 -58 12 -18 5
-603 11 -609 6z"/>
<path d="M4644 6953 c-68 -19 -182 -75 -190 -93 -9 -21 -12 -49 -19 -175 -3
-60 -8 -137 -10 -170 -4 -62 -11 -162 -20 -325 -3 -52 -8 -120 -10 -150 -4
-50 -12 -185 -20 -333 -3 -69 -6 -73 -52 -83 -21 -4 -40 -8 -43 -9 -36 -10
-138 -28 -230 -41 -314 -43 -428 -151 -431 -409 -1 -116 37 -197 121 -254 67
-46 130 -63 188 -51 26 5 61 12 77 14 38 7 191 35 273 50 l62 13 1 -26 c0 -14
1 -600 1 -1301 0 -852 4 -1282 11 -1295 34 -67 169 -124 307 -131 135 -5 224
33 341 147 37 36 109 145 124 189 1 3 9 21 17 40 9 19 24 62 33 95 21 69 16
177 -13 290 -18 70 -18 70 -75 100 l-58 30 6 405 c3 223 8 464 10 535 4 127
10 378 20 820 3 121 9 223 13 226 35 32 614 161 912 203 278 39 428 51 615 50
135 -1 162 -4 270 -33 94 -25 139 -32 210 -32 49 0 99 2 110 5 63 14 86 22
141 48 91 44 157 107 196 185 28 57 32 77 35 157 3 113 -15 185 -65 251 -54
71 -84 89 -145 91 -29 0 -68 -3 -87 -7 -70 -15 -130 -19 -370 -24 -364 -8
-499 -15 -595 -30 -16 -3 -46 -7 -65 -9 -19 -3 -111 -17 -205 -30 -93 -14
-192 -28 -220 -32 -27 -4 -58 -8 -68 -10 -10 -2 -83 -13 -162 -24 -79 -11
-152 -23 -162 -24 -10 -2 -46 -7 -78 -11 -33 -4 -69 -9 -80 -11 -11 -2 -42 -7
-70 -10 -27 -3 -60 -7 -72 -10 -14 -3 -23 1 -24 8 -3 40 1 377 7 588 11 426
11 438 -3 469 -23 47 -124 95 -266 125 -105 23 -137 24 -193 9z"/>
</g>
</svg>
